# xmcd CD database file
#
# Track frame offsets:
#	150
#	20284
#	38130
#
# Disc length: 686 seconds
#
# Revision: 0
# Processed by: cddbd v1.5.1PL2 Copyright (c) Steve Scherf et al.
# Submitted via: CDex 1.51
#
DISCID=1802ac03
DTITLE=Right Bumper Crash - Stay for
DYEAR=2002
DGENRE=Punk Rock
TTITLE0=Stay for
TTITLE1=Bloomed red
TTITLE2=It can't wait
EXTD=YEAR: 2002
EXTT0=
EXTT1=
EXTT2=
PLAYORDER=
